<?xml version="1.0" encoding="utf-8"?>
<!-- Svg Vector Icons : http://www.onlinewebfonts.com/icon -->
<!DOCTYPE svg PUBLIC "-//W3C//DTD SVG 1.1//EN" "http://www.w3.org/Graphics/SVG/1.1/DTD/svg11.dtd">
<svg version="1.1" xmlns="http://www.w3.org/2000/svg" xmlns:xlink="http://www.w3.org/1999/xlink" x="0px" y="0px" viewBox="0 0 1000 1000" enable-background="new 0 0 1000 1000" xml:space="preserve">
<metadata> Svg Vector Icons : http://www.onlinewebfonts.com/icon </metadata>
<g><g transform="translate(0.000000,511.000000) scale(0.100000,-0.100000)"><path d="M2353.7,4405c-975.8-112.7-1832.6-816.4-2136.6-1756c-97.8-301.9-119.1-455-116.9-824.9c0-280.6,8.5-376.3,51-542.1c93.5-389,231.7-682.4,455-977.9c87.2-114.8,916.3-958.8,2302.4-2342.8L5072.7-4203l2102.6,2179.1C8331.8-824.8,9333.2,227.5,9399.1,314.7c495.3,661.2,631.4,1522.2,372,2347.1c-191.3,605.9-663.3,1156.5-1250.1,1460.5c-386.9,199.8-739.8,284.9-1184.2,284.9c-312.5,0-569.7-40.4-833.4-127.6c-425.2-142.4-665.4-306.1-1139.5-773.8l-365.7-361.4l-367.8,361.4c-410.3,408.2-550.6,514.5-867.4,667.5C3325.2,4381.6,2838.4,4462.4,2353.7,4405z M2936.2,4152c272.1-34,474.1-95.7,733.5-223.2c312.5-153.1,438-253,922.7-739.8l412.4-414.6l437.9,442.2c446.5,450.7,578.3,557,871.6,701.6c325.3,163.7,637.8,233.8,1026.8,233.8c1194.8,0,2157.9-871.6,2293.9-2072.8c61.7-554.9-104.2-1158.7-442.2-1607.2C9080.2,321,5096.1-3820.3,5064.2-3820.3c-8.5,0-960.9,950.3-2119.6,2111.1C1365.1-127.5,814.5,435.9,742.2,548.5c-506,776-529.4,1717.8-63.8,2504.4c110.6,187.1,393.3,499.6,576.1,639.9C1741.4,4062.7,2334.5,4224.3,2936.2,4152z"/></g></g>
</svg>